<svg viewBox="0 0 24 24" fill="none" xmlns="http://www.w3.org/2000/svg">
  <path d="M4 21l1.3-4.4A8.5 8.5 0 1 1 8.8 20L4 21Z" stroke="currentColor" stroke-width="1.8" stroke-linecap="round" stroke-linejoin="round"/>
  <path d="M8.7 8.4c.2-.5.5-.5.8-.5h.6c.2 0 .4 0 .6.5.2.5.7 1.7.7 1.9.1.1.1.3 0 .4-.1.2-.2.3-.3.4l-.4.5c-.1.1-.2.3-.1.5.4.7 1 1.4 1.6 1.9.6.5 1.2.8 1.9 1.1.2.1.3 0 .5-.1l.6-.6c.2-.2.3-.2.5-.1l1.7.9c.2.1.4.2.4.4.1.5-.1 1-.4 1.4-.4.4-1.1.7-1.7.7-1.6 0-3.4-.8-4.8-2s-2.3-2.9-2.6-4.5c-.1-.6.1-1.3.5-1.8Z" fill="currentColor"/>
</svg>
